<?xml version="1.0" encoding="UTF-8" standalone="no"?>
<svg
   xmlns:dc="http://purl.org/dc/elements/1.1/"
   xmlns:cc="http://creativecommons.org/ns#"
   xmlns:rdf="http://www.w3.org/1999/02/22-rdf-syntax-ns#"
   xmlns:svg="http://www.w3.org/2000/svg"
   xmlns="http://www.w3.org/2000/svg"
   xmlns:xlink="http://www.w3.org/1999/xlink"
   xmlns:sodipodi="http://sodipodi.sourceforge.net/DTD/sodipodi-0.dtd"
   xmlns:inkscape="http://www.inkscape.org/namespaces/inkscape"
   sodipodi:docname="whatsapp2.svg"
   width="3000"
   height="3000"
   viewBox="0 0 793.74998 793.75002"
   version="1.1"
   id="svg1350"
   inkscape:version="1.0 (6e3e5246a0, 2020-05-07)">
  <defs
     id="defs1344">
    <linearGradient
       inkscape:collect="always"
       xlink:href="#linearGradient1644"
       id="linearGradient1637"
       gradientUnits="userSpaceOnUse"
       gradientTransform="matrix(1.0574142,0.6113336,-1.0464809,0.60501266,397.74105,-72.772226)"
       x1="212.51054"
       y1="607.80444"
       x2="604.36194"
       y2="168.94814" />
    <linearGradient
       id="linearGradient1644"
       inkscape:collect="always">
      <stop
         id="stop1640"
         offset="0"
         style="stop-color:#d7cece;stop-opacity:1" />
      <stop
         style="stop-color:#cacaca;stop-opacity:1"
         offset="0.08219032"
         id="stop1658" />
      <stop
         style="stop-color:#aeaeae;stop-opacity:1"
         offset="0.16113155"
         id="stop1652" />
      <stop
         id="stop1656"
         offset="0.29358017"
         style="stop-color:#b7b3b3;stop-opacity:1;" />
      <stop
         style="stop-color:#c0b9b9;stop-opacity:1"
         offset="0.4188112"
         id="stop1646" />
      <stop
         id="stop1662"
         offset="0.4877373"
         style="stop-color:#ebcaca;stop-opacity:1" />
      <stop
         id="stop1660"
         offset="0.55935442"
         style="stop-color:#969191;stop-opacity:1" />
      <stop
         id="stop1648"
         offset="0.65620518"
         style="stop-color:#ffffff;stop-opacity:1" />
      <stop
         style="stop-color:#808080;stop-opacity:1"
         offset="0.78165948"
         id="stop1664" />
      <stop
         style="stop-color:#c6baba;stop-opacity:1"
         offset="0.83556467"
         id="stop1650" />
      <stop
         id="stop1654"
         offset="0.90906924"
         style="stop-color:#a5a4a4;stop-opacity:1;" />
      <stop
         id="stop1642"
         offset="1"
         style="stop-color:#b7b7b7;stop-opacity:1" />
    </linearGradient>
    <linearGradient
       inkscape:collect="always"
       xlink:href="#linearGradient852"
       id="linearGradient1633"
       gradientUnits="userSpaceOnUse"
       x1="402.89734"
       y1="620.97882"
       x2="406.84952"
       y2="131.94653"
       gradientTransform="matrix(1.2214146,0,0,1.2087857,115.03953,-344.38941)" />
    <linearGradient
       inkscape:collect="always"
       id="linearGradient852">
      <stop
         style="stop-color:#84e084;stop-opacity:1"
         offset="0"
         id="stop848" />
      <stop
         style="stop-color:#b4f4b4;stop-opacity:1"
         offset="1"
         id="stop850" />
    </linearGradient>
    <radialGradient
       inkscape:collect="always"
       xlink:href="#linearGradient874"
       id="radialGradient1631"
       gradientUnits="userSpaceOnUse"
       cx="373.71713"
       cy="347.86688"
       fx="373.71713"
       fy="347.86688"
       r="94.4104" />
    <linearGradient
       inkscape:collect="always"
       id="linearGradient874">
      <stop
         style="stop-color:#85ff85;stop-opacity:1"
         offset="0"
         id="stop870" />
      <stop
         style="stop-color:#169016;stop-opacity:1"
         offset="1"
         id="stop872" />
    </linearGradient>
  </defs>
  <sodipodi:namedview
     id="base"
     pagecolor="#ffffff"
     bordercolor="#666666"
     borderopacity="1.0"
     inkscape:pageopacity="0.0"
     inkscape:pageshadow="2"
     inkscape:zoom="0.175"
     inkscape:cx="1233.2536"
     inkscape:cy="730.97476"
     inkscape:document-units="px"
     inkscape:current-layer="layer1"
     inkscape:document-rotation="0"
     showgrid="false"
     units="px"
     inkscape:pagecheckerboard="true"
     borderlayer="true" />
  <metadata
     id="metadata1347">
    <rdf:RDF>
      <cc:Work
         rdf:about="">
        <dc:format>image/svg+xml</dc:format>
        <dc:type
           rdf:resource="http://purl.org/dc/dcmitype/StillImage" />
        <dc:title></dc:title>
      </cc:Work>
    </rdf:RDF>
  </metadata>
  <g
     inkscape:label="Layer 1"
     inkscape:groupmode="layer"
     id="layer1">
    <g
       transform="translate(-26.794022,19.370374)"
       id="g2527">
      <path
         sodipodi:nodetypes="sssssssssss"
         d="m 583.88017,183.50286 222.73473,91.01582 c 12.66832,5.17666 4.94772,46.13163 4.94785,55.07199 -1.3e-4,8.9403 -5.92477,17.88067 -17.77405,24.73122 l -445.14586,257.3567 c -23.6987,13.70111 -61.85592,13.70115 -85.55457,0 L 53.179792,490.32207 c -11.849309,-6.85054 -17.773952,-15.7909 -17.773964,-24.73124 0,-8.94036 -6.570745,-50.75195 5.705877,-56.80111 L 498.32568,183.50286 c 24.55326,-12.09832 60.2181,-10.35319 85.55449,0 z"
         style="fill:url(#linearGradient1637);fill-opacity:1;stroke:#000000;stroke-width:12.9127;stroke-linecap:round;stroke-linejoin:round;stroke-miterlimit:4;stroke-dasharray:none"
         id="rect1609" />
      <rect
         ry="49.411831"
         y="-195.88115"
         x="429.14444"
         height="613.00977"
         width="341.28809"
         id="rect1635"
         style="fill:url(#linearGradient1633);fill-opacity:1;stroke:#000000;stroke-width:13.8709;stroke-linecap:round;stroke-linejoin:round;stroke-miterlimit:4;stroke-dasharray:none"
         transform="matrix(0.86572915,0.50051278,-0.86572915,0.50051278,0,0)" />
      <g
         style="stroke-width:0.884058"
         id="g1617"
         transform="matrix(1.0574142,0.61133361,-1.046481,0.60501266,429.71348,-96.307958)">
        <path
           sodipodi:nodetypes="sssssssss"
           d="m 362.3027,155.10775 h 81.7805 c 22.64604,0 40.87733,16.95094 40.87733,38.00659 v 78.58506 c 0,21.05565 -18.23129,-2.86066 -40.87733,-2.86066 h -81.7805 c -22.64604,0 -40.87733,-16.95094 -40.87733,-38.00659 v -37.71781 c 0,-21.05565 18.23129,-38.00659 40.87733,-38.00659 z"
           style="fill:#2ca02c;stroke:#000000;stroke-width:11.4156;stroke-linecap:round;stroke-linejoin:round;stroke-miterlimit:4;stroke-dasharray:none"
           id="path1611" />
        <path
           id="path1613"
           style="fill:#2ca02c;stroke:#000000;stroke-width:11.4156;stroke-linecap:round;stroke-linejoin:round;stroke-miterlimit:4;stroke-dasharray:none"
           d="m 370.97438,302.45802 h -81.7805 c -22.64604,0 -40.87733,16.95094 -40.87733,38.00659 v 78.58506 c 0,21.05565 18.23129,-2.86066 40.87733,-2.86066 h 81.7805 c 22.64604,0 40.87733,-16.95094 40.87733,-38.00659 v -37.71781 c 0,-21.05565 -18.23129,-38.00659 -40.87733,-38.00659 z"
           sodipodi:nodetypes="sssssssss" />
        <path
           id="path1615"
           style="fill:#2ca02c;stroke:#000000;stroke-width:11.4156;stroke-linecap:round;stroke-linejoin:round;stroke-miterlimit:4;stroke-dasharray:none"
           d="m 362.3027,445.67776 h 81.7805 c 22.64604,0 40.87733,16.95094 40.87733,38.00659 v 56.22951 c 0,21.05565 -18.23129,-2.86066 -40.87733,-2.86066 h -81.7805 c -22.64604,0 -40.87733,-16.95094 -40.87733,-38.00659 v -15.36226 c 0,-21.05565 18.23129,-38.00659 40.87733,-38.00659 z"
           sodipodi:nodetypes="sssssssss" />
      </g>
      <g
         id="g1627"
         transform="matrix(1.1416678,0.66004399,-1.1298634,0.6532194,416.83061,-129.5585)"
         style="stroke-width:0.818812">
        <path
           sodipodi:nodetypes="ssssssss"
           d="m 462.83588,347.86688 c 0,49.21893 -39.89982,89.11875 -89.11875,89.11875 -12.30473,0 -24.02702,-2.49374 -34.68904,-7.00339 -10.66202,-4.50966 -41.00409,8.57276 -49.06775,0.5091 -8.06366,-8.06366 6.15109,-37.2734 1.64143,-47.93542 -4.50965,-10.66202 -7.00339,-22.38431 -7.00339,-34.68904 0,-49.21893 39.89982,-89.11875 89.11875,-89.11875 49.21893,0 89.11875,39.89982 89.11875,89.11875 z"
           style="fill:url(#radialGradient1631);fill-opacity:1;stroke:#ffffff;stroke-width:8.66576;stroke-linecap:round;stroke-linejoin:round;stroke-miterlimit:4;stroke-dasharray:none;stroke-opacity:1"
           id="path1619" />
        <g
           transform="matrix(0.26458333,0,0,0.26458333,314.99228,268.19481)"
           id="g1625"
           style="stroke-width:0.818812">
          <g
             id="g1623"
             style="stroke-width:0.818812">
            <path
               style="fill:#ffffff;stroke-width:0.818812"
               sodipodi:nodetypes="ccsasc"
               d="M 253.7172,362.91373 C 213.81412,352.72463 159.94496,299.7413 149.96919,256.94707 203.2056,147.37737 137.02517,83.310206 40.235701,130.6022 -38.638156,169.1405 46.8978,327.74024 109.59876,392.92548 174.32661,460.21791 320.79879,540.3489 377.41675,474.99386 457.24245,382.84974 352.07662,305.81346 253.7172,362.91373 Z"
               id="path1621" />
          </g>
        </g>
      </g>
      <path
         style="fill:none;stroke:#ffffff;stroke-width:10.5833;stroke-linecap:round;stroke-linejoin:round;stroke-miterlimit:4;stroke-dasharray:none;stroke-opacity:1"
         d="m 146.94987,473.69817 71.51005,42.15271"
         id="path1629" />
    </g>
  </g>
</svg>
